<svg xmlns="http://www.w3.org/2000/svg" xmlns:xlink="http://www.w3.org/1999/xlink" width="840" height="902" viewBox="0 0 840 902">
  <defs>
    <clipPath id="clip-Coffee_1">
      <rect width="840" height="902"/>
    </clipPath>
  </defs>
  <g id="Coffee_1" data-name="Coffee – 1" clip-path="url(#clip-Coffee_1)">
    <rect id="Rectangle_5" data-name="Rectangle 5" width="86" height="104" rx="10" transform="translate(81 416)" fill="#fff"/>
    <path id="Path_67" data-name="Path 67" d="M6629,3003.968h26.227v50.323H6629" transform="translate(-6475.113 -2561.129)" fill="none" stroke="#fff" stroke-linejoin="round" stroke-width="10"/>
    <g id="Path_69" data-name="Path 69" transform="translate(85.644 412.551)" fill="#362020">
      <path d="M 38.35595703125 22.72192764282227 C 28.15788650512695 22.72192764282227 18.57674789428711 21.53620910644531 11.37745666503906 19.38319778442383 C 4.464676856994629 17.31585884094238 0.4999970197677612 14.53410816192627 0.4999970197677612 11.75120830535889 C 0.4999970197677612 10.75982856750488 1.002837061882019 9.957988739013672 2.037236928939819 9.299888610839844 C 3.087316989898682 8.631818771362305 4.645617008209229 8.122447967529297 6.801197052001953 7.742688179016113 C 11.20686721801758 6.966508388519287 17.65656661987305 6.859518527984619 23.97011756896973 6.859518527984619 C 26.11466789245605 6.859518527984619 28.32928657531738 6.872818470001221 30.67393684387207 6.886908531188965 C 33.15691757202148 6.901828289031982 35.72441864013672 6.917258262634277 38.35595703125 6.917258262634277 C 40.98679733276367 6.917258262634277 43.55455780029297 6.901828289031982 46.03777694702148 6.886908531188965 C 48.38274765014648 6.872818470001221 50.5976676940918 6.859518527984619 52.74180603027344 6.859518527984619 C 59.05609893798828 6.859518527984619 65.50639343261719 6.966488361358643 69.91139984130859 7.742538452148438 C 72.06681060791016 8.122268676757812 73.62496948242188 8.631628036499023 74.67489624023438 9.299708366394043 C 75.70915985107422 9.957808494567871 76.2119140625 10.75970840454102 76.2119140625 11.75120830535889 C 76.2119140625 14.53410816192627 72.24723815917969 17.31585884094238 65.33445739746094 19.38319778442383 C 58.13517761230469 21.53620910644531 48.55402755737305 22.72192764282227 38.35595703125 22.72192764282227 Z" stroke="none"/>
      <path d="M 23.97016906738281 7.359506607055664 C 17.67932510375977 7.359506607055664 11.25584411621094 7.465585708618164 6.887977600097656 8.235095977783203 C 4.827247619628906 8.598152160644531 3.2855224609375 9.098329544067383 2.305648803710938 9.72174072265625 C 1.135345458984375 10.46630668640137 1 11.23658561706543 1 11.75120735168457 C 1 13.25218486785889 2.409278869628906 14.56369590759277 3.591522216796875 15.39960765838623 C 5.408622741699219 16.68440628051758 8.150505065917969 17.8962516784668 11.52072143554688 18.90415191650391 C 18.67480087280273 21.04364013671875 28.2050666809082 22.2219181060791 38.35595703125 22.2219181060791 C 48.50684356689453 22.2219181060791 58.03711318969727 21.04364013671875 65.19119262695312 18.90415191650391 C 68.56141662597656 17.8962516784668 71.30329132080078 16.68440628051758 73.12039184570312 15.39960765838623 C 75.26231384277344 13.88515186309814 75.7119140625 12.57968521118164 75.7119140625 11.75120735168457 C 75.7119140625 11.23649597167969 75.57659149169922 10.46609687805176 74.40645599365234 9.721529006958008 C 73.42672729492188 9.098117828369141 71.88516998291016 8.597951889038086 69.82461547851562 8.234930038452148 C 65.45729827880859 7.465507507324219 59.03327941894531 7.359474182128906 52.74174499511719 7.359506607055664 C 50.59957885742188 7.359518051147461 48.38590240478516 7.372817993164062 46.04224395751953 7.386896133422852 C 43.55783462524414 7.401819229125977 40.98882293701172 7.417251586914062 38.35595703125 7.417251586914062 C 35.72292327880859 7.417251586914062 33.15466690063477 7.401819229125977 30.67096710205078 7.386896133422852 C 28.32710266113281 7.372806549072266 26.11322402954102 7.359506607055664 23.97016906738281 7.359506607055664 M 23.97016906738281 6.35951042175293 C 28.41279983520508 6.35951042175293 33.26826477050781 6.417251586914062 38.35595703125 6.417251586914062 C 43.44235610961914 6.417251586914062 48.30003356933594 6.359531402587891 52.74174499511719 6.35951042175293 C 66.79850769042969 6.359439849853516 76.7119140625 6.93724250793457 76.7119140625 11.75120735168457 C 76.7119140625 18.08630752563477 59.53936767578125 23.2219181060791 38.35595703125 23.2219181060791 C 17.17254638671875 23.2219181060791 0 18.08630752563477 0 11.75120735168457 C 0 6.937629699707031 9.915199279785156 6.35951042175293 23.97016906738281 6.35951042175293 Z" stroke="none" fill="#707070"/>
    </g>
    <g id="Group_28" data-name="Group 28" transform="translate(105.247 464)">
      <path id="Path_52" data-name="Path 52" d="M30.23,4.658,11.322,0l.707,11.872Z" transform="translate(-4.361)" fill="#9d8dff"/>
      <path id="Path_53" data-name="Path 53" d="M0,22.606l1.541,9.807,13-8.919L6.671,19.959Z" transform="translate(0 -7.687)" fill="#9d8dff" opacity="0.5"/>
      <path id="Path_54" data-name="Path 54" d="M55.311.088,46.231,3.676l.544,2.266Z" transform="translate(-17.806 -0.034)" fill="#9d8dff" opacity="0.5"/>
      <path id="Path_55" data-name="Path 55" d="M33.148,8.19,32.6,5.924,30.048,6.94l-18.2,7.214-1,.4,7.868,3.535,18.871,8.466Z" transform="translate(-4.179 -2.282)" fill="#9d8dff" opacity="0.8"/>
    </g>
  </g>
</svg>
