<svg xmlns="http://www.w3.org/2000/svg" xmlns:xlink="http://www.w3.org/1999/xlink" width="840" height="902" viewBox="0 0 840 902">
  <defs>
    <clipPath id="clip-Corona_1">
      <rect width="840" height="902"/>
    </clipPath>
  </defs>
  <g id="Corona_1" data-name="Corona – 1" clip-path="url(#clip-Corona_1)">
    <text id="_" data-name="🦠" transform="translate(74 327)" fill="#707070" font-size="200" font-family="AppleColorEmoji, Apple Color Emoji"><tspan x="0" y="200">🦠</tspan></text>
    <g id="Path_74" data-name="Path 74" transform="matrix(0.966, 0.259, -0.259, 0.966, 386.173, 418.366)">
      <path d="M 61.73670196533203 98.49068450927734 L 8.079657554626465 89.83104705810547 L 8.040078163146973 89.82466888427734 L 7.999998092651367 89.82466888427734 C 3.864477872848511 89.82466888427734 0.4999978840351105 86.09426879882812 0.4999978840351105 81.50897216796875 L 0.4999978840351105 81.42839050292969 L 0.4746978878974915 81.35191345214844 L -19.51546478271484 20.93538475036621 L 0.2544778883457184 9.246109962463379 L 0.4999978840351105 9.100929260253906 L 0.4999978840351105 8.815710067749023 C 0.4999978840351105 4.230409622192383 3.864477872848511 0.5000097155570984 7.999998092651367 0.5000097155570984 L 112.9673614501953 0.5000097155570984 C 117.1028747558594 0.5000097155570984 120.4673614501953 4.230409622192383 120.4673614501953 8.815710067749023 L 120.4673614501953 8.916989326477051 L 120.5067749023438 9.010310173034668 L 134.3542938232422 41.78568267822266 C 134.3002014160156 42.97283554077148 133.2983703613281 46.37434005737305 131.5867614746094 51.17514801025391 C 129.8432922363281 56.06533050537109 127.482177734375 62.06549072265625 125.1088409423828 67.63710784912109 C 122.4317398071289 73.92176818847656 119.9084167480469 79.29379272460938 117.8116760253906 83.17237091064453 C 114.3888549804688 89.50395202636719 113.17578125 89.82466888427734 112.9673614501953 89.82466888427734 L 112.9253387451172 89.82466888427734 L 112.8838958740234 89.83168792724609 L 61.73670196533203 98.49068450927734 Z" stroke="none"/>
      <path d="M 7.999992370605469 0.9999923706054688 C 4.140174865722656 0.9999923706054688 0.9999923706054688 4.506111145019531 0.9999923706054688 8.815711975097656 L 0.9999923706054688 9.38616943359375 L -18.91425323486328 21.1607666015625 L 0.9999923706054688 81.34783172607422 L 0.9999923706054688 81.50897216796875 C 0.9999923706054688 85.81857299804688 4.140174865722656 89.32466888427734 7.999992370605469 89.32466888427734 L 8.080169677734375 89.32466888427734 L 8.159309387207031 89.33744812011719 L 61.73466110229492 97.98387908935547 L 112.8833160400391 89.32466888427734 L 112.9294891357422 89.32466888427734 C 113.0228271484375 89.28802490234375 113.5418701171875 89.02637481689453 114.6596755981445 87.44412994384766 C 115.5145950317383 86.23397064208984 116.533332824707 84.51844787597656 117.6875915527344 82.34523010253906 C 119.7774353027344 78.41046905517578 122.2637710571289 73.07032775878906 124.8778533935547 66.90211486816406 C 127.2045135498047 61.41207122802734 129.5069580078125 55.53768920898438 131.1947937011719 50.78524780273438 C 133.3928375244141 44.59619140625 133.7867584228516 42.5167236328125 133.8468475341797 41.86934661865234 L 119.9673538208008 9.018287658691406 L 119.9673538208008 8.815711975097656 C 119.9673538208008 4.506111145019531 116.8271713256836 0.9999923706054688 112.9673538208008 0.9999923706054688 L 7.999992370605469 0.9999923706054688 M 7.999992370605469 -7.62939453125e-06 L 112.9673538208008 -7.62939453125e-06 C 117.3856353759766 -7.62939453125e-06 120.9673538208008 3.946929931640625 120.9673538208008 8.815711975097656 L 134.8565979003906 41.68984985351562 C 134.8565979003906 46.55862808227539 117.3856353759766 90.32466888427734 112.9673538208008 90.32466888427734 L 61.73861312866211 98.99745178222656 L 7.999992370605469 90.32466888427734 C 3.581710815429688 90.32466888427734 -7.62939453125e-06 86.37774658203125 -7.62939453125e-06 81.50897216796875 L -20.11670684814453 20.71000671386719 L -7.62939453125e-06 8.815711975097656 C -7.62939453125e-06 3.946929931640625 3.581710815429688 -7.62939453125e-06 7.999992370605469 -7.62939453125e-06 Z" stroke="none" fill="#707070"/>
    </g>
    <path id="Path_75" data-name="Path 75" d="M5068.113,2978.435s-9.437-25.128-18.6-39.007-18.051-16.508-18.051-16.508" transform="translate(-4681.51 -2552.465)" fill="none" stroke="#000" stroke-width="5"/>
    <path id="Path_76" data-name="Path 76" d="M5031.463,2978.435s15.953-25.128,31.441-39.007,30.514-16.508,30.514-16.508" transform="translate(-2814.484 -4362.702) rotate(25)" fill="none" stroke="#000" stroke-width="5"/>
  </g>
</svg>
