<svg xmlns="http://www.w3.org/2000/svg" xmlns:xlink="http://www.w3.org/1999/xlink" width="840" height="902" viewBox="0 0 840 902">
  <defs>
    <clipPath id="clip-Flower_1">
      <rect width="840" height="902"/>
    </clipPath>
  </defs>
  <g id="Flower_1" data-name="Flower – 1" clip-path="url(#clip-Flower_1)">
    <g id="Group_11" data-name="Group 11" transform="translate(592.932 217.298) rotate(30)">
      <path id="Path_52" data-name="Path 52" d="M55.713,10.937,11.322,0l1.661,27.874Z" transform="translate(5.022 0)" fill="#8321d6"/>
      <path id="Path_53" data-name="Path 53" d="M0,26.173,3.619,49.2l30.516-20.94-18.472-8.3Z" transform="translate(0 8.853)" fill="#8321d6" opacity="0.5"/>
      <path id="Path_54" data-name="Path 54" d="M67.551.088,46.231,8.513l1.278,5.32Z" transform="translate(20.505 0.039)" fill="#8321d6" opacity="0.5"/>
      <path id="Path_55" data-name="Path 55" d="M63.2,11.244l-1.278-5.32-6,2.385L13.192,25.247l-2.341.937,18.472,8.3,44.3,19.876Z" transform="translate(4.813 2.628)" fill="#8321d6" opacity="0.8"/>
    </g>
    <g id="Group_18" data-name="Group 18" transform="matrix(0.995, -0.105, 0.105, 0.995, 538.212, 321.858)">
      <path id="Path_52-2" data-name="Path 52" d="M25.883,6.377,0,0,.968,16.253Z" transform="translate(9.53 0)" fill="#8321d6"/>
      <path id="Path_53-2" data-name="Path 53" d="M0,3.623,2.11,17.048,19.9,4.839,9.133,0Z" transform="translate(0 16.799)" fill="#8321d6" opacity="0.5"/>
      <path id="Path_54-2" data-name="Path 54" d="M12.431,0,0,4.913l.745,3.1Z" transform="translate(38.911 0.074)" fill="#8321d6" opacity="0.5"/>
      <path id="Path_55-2" data-name="Path 55" d="M30.524,3.1,29.779,0l-3.5,1.391L1.365,11.266,0,11.813l10.77,4.839L36.6,28.24Z" transform="translate(9.133 4.986)" fill="#8321d6" opacity="0.8"/>
    </g>
    <g id="Group_15" data-name="Group 15" transform="translate(618.888 232.284) rotate(86)">
      <path id="Path_52-3" data-name="Path 52" d="M44.391,10.937,0,0,1.661,27.874Z" transform="translate(16.344 0)" fill="#3217fd"/>
      <path id="Path_53-3" data-name="Path 53" d="M0,6.214,3.619,29.239,34.135,8.3,15.663,0Z" transform="translate(0 28.812)" fill="#3217fd" opacity="0.5"/>
      <path id="Path_54-3" data-name="Path 54" d="M21.32,0,0,8.425l1.278,5.32Z" transform="translate(66.736 0.127)" fill="#3217fd" opacity="0.5"/>
      <path id="Path_55-3" data-name="Path 55" d="M52.35,5.32,51.072,0l-6,2.385L2.341,19.322,0,20.259l18.472,8.3,44.3,19.876Z" transform="translate(15.663 8.552)" fill="#3217fd" opacity="0.8"/>
    </g>
    <g id="Group_52" data-name="Group 52" transform="translate(361.193 299.974) rotate(-108)">
      <path id="Path_52-4" data-name="Path 52" d="M44.391,10.937,0,0,1.661,27.874Z" transform="translate(16.344 0)" fill="#3217fd"/>
      <path id="Path_53-4" data-name="Path 53" d="M0,6.214,3.619,29.239,34.135,8.3,15.663,0Z" transform="translate(0 28.812)" fill="#3217fd" opacity="0.5"/>
      <path id="Path_54-4" data-name="Path 54" d="M21.32,0,0,8.425l1.278,5.32Z" transform="translate(66.736 0.127)" fill="#3217fd" opacity="0.5"/>
      <path id="Path_55-4" data-name="Path 55" d="M52.35,5.32,51.072,0l-6,2.385L2.341,19.322,0,20.259l18.472,8.3,44.3,19.876Z" transform="translate(15.663 8.552)" fill="#3217fd" opacity="0.8"/>
    </g>
    <g id="Group_19" data-name="Group 19" transform="matrix(0.643, 0.766, -0.766, 0.643, 497.983, 194.156)">
      <path id="Path_52-5" data-name="Path 52" d="M44.95,11.075,0,0,1.682,28.225Z" transform="translate(16.549 0)" fill="#3217fd"/>
      <path id="Path_53-5" data-name="Path 53" d="M0,6.292,3.665,29.607l30.9-21.2L15.86,0Z" transform="translate(0 29.174)" fill="#3217fd" opacity="0.5"/>
      <path id="Path_54-5" data-name="Path 54" d="M21.589,0,0,8.531l1.294,5.387Z" transform="translate(67.576 0.129)" fill="#3217fd" opacity="0.5"/>
      <path id="Path_55-5" data-name="Path 55" d="M53.009,5.387,51.715,0,45.639,2.415,2.371,19.566,0,20.514l18.7,8.4L63.567,49.044Z" transform="translate(15.86 8.66)" fill="#3217fd" opacity="0.8"/>
    </g>
    <g id="Group_59" data-name="Group 59" transform="translate(487.731 307.72) rotate(-144)">
      <path id="Path_52-6" data-name="Path 52" d="M44.95,11.075,0,0,1.682,28.225Z" transform="translate(16.549 0)" fill="#3217fd"/>
      <path id="Path_53-6" data-name="Path 53" d="M0,6.292,3.665,29.607l30.9-21.2L15.86,0Z" transform="translate(0 29.174)" fill="#3217fd" opacity="0.5"/>
      <path id="Path_54-6" data-name="Path 54" d="M21.589,0,0,8.531l1.294,5.387Z" transform="translate(67.576 0.129)" fill="#3217fd" opacity="0.5"/>
      <path id="Path_55-6" data-name="Path 55" d="M53.009,5.387,51.715,0,45.639,2.415,2.371,19.566,0,20.514l18.7,8.4L63.567,49.044Z" transform="translate(15.86 8.66)" fill="#3217fd" opacity="0.8"/>
    </g>
    <g id="Group_12" data-name="Group 12" transform="translate(590.082 227.376) rotate(80)">
      <path id="Path_52-7" data-name="Path 52" d="M44.391,10.937,0,0,1.661,27.874Z" transform="translate(16.344 0)" fill="#4c00f8"/>
      <path id="Path_53-7" data-name="Path 53" d="M0,6.214,3.619,29.239,34.135,8.3,15.663,0Z" transform="translate(0 28.812)" fill="#4c00f8" opacity="0.5"/>
      <path id="Path_54-7" data-name="Path 54" d="M21.32,0,0,8.425l1.278,5.32Z" transform="translate(66.736 0.127)" fill="#4c00f8" opacity="0.5"/>
      <path id="Path_55-7" data-name="Path 55" d="M52.35,5.32,51.072,0l-6,2.385L2.341,19.322,0,20.259l18.472,8.3,44.3,19.876Z" transform="translate(15.663 8.552)" fill="#4c00f8" opacity="0.8"/>
    </g>
    <g id="Group_53" data-name="Group 53" transform="translate(390.33 297.767) rotate(-114)">
      <path id="Path_52-8" data-name="Path 52" d="M44.391,10.937,0,0,1.661,27.874Z" transform="translate(16.344 0)" fill="#4c00f8"/>
      <path id="Path_53-8" data-name="Path 53" d="M0,6.214,3.619,29.239,34.135,8.3,15.663,0Z" transform="translate(0 28.812)" fill="#4c00f8" opacity="0.5"/>
      <path id="Path_54-8" data-name="Path 54" d="M21.32,0,0,8.425l1.278,5.32Z" transform="translate(66.736 0.127)" fill="#4c00f8" opacity="0.5"/>
      <path id="Path_55-8" data-name="Path 55" d="M52.35,5.32,51.072,0l-6,2.385L2.341,19.322,0,20.259l18.472,8.3,44.3,19.876Z" transform="translate(15.663 8.552)" fill="#4c00f8" opacity="0.8"/>
    </g>
    <g id="Group_17" data-name="Group 17" transform="matrix(0.719, 0.695, -0.695, 0.719, 471.464, 207.281)">
      <path id="Path_52-9" data-name="Path 52" d="M44.95,11.075,0,0,1.682,28.225Z" transform="translate(16.549 0)" fill="#4c00f8"/>
      <path id="Path_53-9" data-name="Path 53" d="M0,6.292,3.665,29.607l30.9-21.2L15.86,0Z" transform="translate(0 29.174)" fill="#4c00f8" opacity="0.5"/>
      <path id="Path_54-9" data-name="Path 54" d="M21.589,0,0,8.531l1.294,5.387Z" transform="translate(67.576 0.129)" fill="#4c00f8" opacity="0.5"/>
      <path id="Path_55-9" data-name="Path 55" d="M53.009,5.387,51.715,0,45.639,2.415,2.371,19.566,0,20.514l18.7,8.4L63.567,49.044Z" transform="translate(15.86 8.66)" fill="#4c00f8" opacity="0.8"/>
    </g>
    <g id="Group_60" data-name="Group 60" transform="translate(510.287 288.569) rotate(-150)">
      <path id="Path_52-10" data-name="Path 52" d="M44.95,11.075,0,0,1.682,28.225Z" transform="translate(16.549 0)" fill="#4c00f8"/>
      <path id="Path_53-10" data-name="Path 53" d="M0,6.292,3.665,29.607l30.9-21.2L15.86,0Z" transform="translate(0 29.174)" fill="#4c00f8" opacity="0.5"/>
      <path id="Path_54-10" data-name="Path 54" d="M21.589,0,0,8.531l1.294,5.387Z" transform="translate(67.576 0.129)" fill="#4c00f8" opacity="0.5"/>
      <path id="Path_55-10" data-name="Path 55" d="M53.009,5.387,51.715,0,45.639,2.415,2.371,19.566,0,20.514l18.7,8.4L63.567,49.044Z" transform="translate(15.86 8.66)" fill="#4c00f8" opacity="0.8"/>
    </g>
    <g id="Group_14" data-name="Group 14" transform="matrix(-0.719, 0.695, -0.695, -0.719, 620.904, 261.111)">
      <path id="Path_52-11" data-name="Path 52" d="M44.391,10.937,0,0,1.661,27.874Z" transform="translate(16.344 0)" fill="#f733b3"/>
      <path id="Path_53-11" data-name="Path 53" d="M0,6.214,3.619,29.239,34.135,8.3,15.663,0Z" transform="translate(0 28.812)" fill="#f733b3" opacity="0.5"/>
      <path id="Path_54-11" data-name="Path 54" d="M21.32,0,0,8.425l1.278,5.32Z" transform="translate(66.736 0.127)" fill="#f733b3" opacity="0.5"/>
      <path id="Path_55-11" data-name="Path 55" d="M52.35,5.32,51.072,0l-6,2.385L2.341,19.322,0,20.259l18.472,8.3,44.3,19.876Z" transform="translate(15.663 8.552)" fill="#f733b3" opacity="0.8"/>
    </g>
    <g id="Group_56" data-name="Group 56" transform="matrix(0.53, -0.848, 0.848, 0.53, 352.263, 272.49)">
      <path id="Path_52-12" data-name="Path 52" d="M44.391,10.937,0,0,1.661,27.874Z" transform="translate(16.344 0)" fill="#f733b3"/>
      <path id="Path_53-12" data-name="Path 53" d="M0,6.214,3.619,29.239,34.135,8.3,15.663,0Z" transform="translate(0 28.812)" fill="#f733b3" opacity="0.5"/>
      <path id="Path_54-12" data-name="Path 54" d="M21.32,0,0,8.425l1.278,5.32Z" transform="translate(66.736 0.127)" fill="#f733b3" opacity="0.5"/>
      <path id="Path_55-12" data-name="Path 55" d="M52.35,5.32,51.072,0l-6,2.385L2.341,19.322,0,20.259l18.472,8.3,44.3,19.876Z" transform="translate(15.663 8.552)" fill="#f733b3" opacity="0.8"/>
    </g>
    <g id="Group_20" data-name="Group 20" transform="translate(516.791 216.571) rotate(100)">
      <path id="Path_52-13" data-name="Path 52" d="M44.95,11.075,0,0,1.682,28.225Z" transform="translate(16.55 0)" fill="#f733b3"/>
      <path id="Path_53-13" data-name="Path 53" d="M0,6.292,3.665,29.607l30.9-21.2L15.86,0Z" transform="translate(0 29.174)" fill="#f733b3" opacity="0.5"/>
      <path id="Path_54-13" data-name="Path 54" d="M21.589,0,0,8.531l1.294,5.387Z" transform="translate(67.576 0.128)" fill="#f733b3" opacity="0.5"/>
      <path id="Path_55-13" data-name="Path 55" d="M53.009,5.387,51.715,0,45.639,2.415,2.371,19.566,0,20.514l18.7,8.4L63.567,49.044Z" transform="translate(15.86 8.66)" fill="#f733b3" opacity="0.8"/>
    </g>
    <g id="Group_13" data-name="Group 13" transform="translate(583.66 278.628) rotate(2)">
      <path id="Path_52-14" data-name="Path 52" d="M44.391,10.937,0,0,1.661,27.874Z" transform="translate(16.344 0)" fill="#9b099b"/>
      <path id="Path_53-14" data-name="Path 53" d="M0,6.214,3.619,29.239,34.135,8.3,15.663,0Z" transform="translate(0 28.812)" fill="#9b099b" opacity="0.5"/>
      <path id="Path_54-14" data-name="Path 54" d="M21.32,0,0,8.425l1.278,5.32Z" transform="translate(66.736 0.127)" fill="#9b099b" opacity="0.5"/>
      <path id="Path_55-14" data-name="Path 55" d="M52.35,5.32,51.072,0l-6,2.385L2.341,19.322,0,20.259l18.472,8.3,44.3,19.876Z" transform="translate(15.663 8.552)" fill="#9b099b" opacity="0.8"/>
    </g>
    <g id="Group_22" data-name="Group 22" transform="translate(496.707 253.088) rotate(-34)">
      <path id="Path_52-15" data-name="Path 52" d="M44.95,11.075,0,0,1.682,28.225Z" transform="translate(16.55 0)" fill="#9b099b"/>
      <path id="Path_53-15" data-name="Path 53" d="M0,6.292,3.665,29.607l30.9-21.2L15.86,0Z" transform="translate(0 29.174)" fill="#9b099b" opacity="0.5"/>
      <path id="Path_54-15" data-name="Path 54" d="M21.589,0,0,8.531l1.294,5.387Z" transform="translate(67.576 0.128)" fill="#9b099b" opacity="0.5"/>
      <path id="Path_55-15" data-name="Path 55" d="M53.009,5.387,51.715,0,45.639,2.415,2.371,19.566,0,20.515l18.7,8.4L63.567,49.044Z" transform="translate(15.86 8.66)" fill="#9b099b" opacity="0.8"/>
    </g>
    <g id="Group_57" data-name="Group 57" transform="matrix(-0.669, 0.743, -0.743, -0.669, 474.712, 250.229)">
      <path id="Path_52-16" data-name="Path 52" d="M44.95,11.075,0,0,1.682,28.225Z" transform="translate(16.55 0)" fill="#9b099b"/>
      <path id="Path_53-16" data-name="Path 53" d="M0,6.292,3.665,29.607l30.9-21.2L15.86,0Z" transform="translate(0 29.174)" fill="#9b099b" opacity="0.5"/>
      <path id="Path_54-16" data-name="Path 54" d="M21.589,0,0,8.531l1.294,5.387Z" transform="translate(67.576 0.128)" fill="#9b099b" opacity="0.5"/>
      <path id="Path_55-16" data-name="Path 55" d="M53.009,5.387,51.715,0,45.639,2.415,2.371,19.566,0,20.515l18.7,8.4L63.567,49.044Z" transform="translate(15.86 8.66)" fill="#9b099b" opacity="0.8"/>
    </g>
    <g id="Group_16" data-name="Group 16" transform="translate(562.859 258.893) rotate(58)">
      <path id="Path_52-17" data-name="Path 52" d="M44.391,10.937,0,0,1.661,27.874Z" transform="translate(16.344 0)" fill="#2a009d"/>
      <path id="Path_53-17" data-name="Path 53" d="M0,6.214,3.619,29.239,34.135,8.3,15.663,0Z" transform="translate(0 28.812)" fill="#2a009d" opacity="0.5"/>
      <path id="Path_54-17" data-name="Path 54" d="M21.32,0,0,8.425l1.278,5.32Z" transform="translate(66.736 0.127)" fill="#2a009d" opacity="0.5"/>
      <path id="Path_55-17" data-name="Path 55" d="M52.35,5.32,51.072,0l-6,2.385L2.341,19.322,0,20.259l18.472,8.3,44.3,19.876Z" transform="translate(15.663 8.552)" fill="#2a009d" opacity="0.8"/>
    </g>
    <g id="Group_21" data-name="Group 21" transform="matrix(0.927, 0.375, -0.375, 0.927, 467.921, 249.302)">
      <path id="Path_52-18" data-name="Path 52" d="M44.95,11.075,0,0,1.682,28.225Z" transform="translate(16.549 0)" fill="#2a009d"/>
      <path id="Path_53-18" data-name="Path 53" d="M0,6.292,3.665,29.607l30.9-21.2L15.86,0Z" transform="translate(0 29.174)" fill="#2a009d" opacity="0.5"/>
      <path id="Path_54-18" data-name="Path 54" d="M21.589,0,0,8.531l1.294,5.387Z" transform="translate(67.576 0.129)" fill="#2a009d" opacity="0.5"/>
      <path id="Path_55-18" data-name="Path 55" d="M53.009,5.387,51.715,0,45.639,2.415,2.371,19.566,0,20.514l18.7,8.4L63.567,49.044Z" transform="translate(15.86 8.66)" fill="#2a009d" opacity="0.8"/>
    </g>
    <g id="Group_58" data-name="Group 58" transform="translate(503.559 246.939) rotate(-172)">
      <path id="Path_52-19" data-name="Path 52" d="M44.95,11.075,0,0,1.682,28.225Z" transform="translate(16.549 0)" fill="#2a009d"/>
      <path id="Path_53-19" data-name="Path 53" d="M0,6.292,3.665,29.607l30.9-21.2L15.86,0Z" transform="translate(0 29.174)" fill="#2a009d" opacity="0.5"/>
      <path id="Path_54-19" data-name="Path 54" d="M21.589,0,0,8.531l1.294,5.387Z" transform="translate(67.576 0.129)" fill="#2a009d" opacity="0.5"/>
      <path id="Path_55-19" data-name="Path 55" d="M53.009,5.387,51.715,0,45.639,2.415,2.371,19.566,0,20.514l18.7,8.4L63.567,49.044Z" transform="translate(15.86 8.66)" fill="#2a009d" opacity="0.8"/>
    </g>
    <text id="_" data-name="🌻" transform="translate(29.484 290.538) rotate(-16)" fill="#707070" font-size="200" font-family="AppleColorEmoji, Apple Color Emoji"><tspan x="0" y="200">🌻</tspan></text>
  </g>
</svg>
