<svg xmlns="http://www.w3.org/2000/svg" xmlns:xlink="http://www.w3.org/1999/xlink" width="840" height="902" viewBox="0 0 840 902">
  <defs>
    <clipPath id="clip-Hawaii_1">
      <rect width="840" height="902"/>
    </clipPath>
  </defs>
  <g id="Hawaii_1" data-name="Hawaii – 1" clip-path="url(#clip-Hawaii_1)">
    <text id="_" data-name="🍹" transform="translate(85 301)" fill="#707070" font-size="200" font-family="AppleColorEmoji, Apple Color Emoji"><tspan x="0" y="200">🍹</tspan></text>
    <g id="Group_29" data-name="Group 29" transform="translate(500.152 495.603) rotate(-48)">
      <path id="Path_52" data-name="Path 52" d="M55.713,10.937,11.322,0l1.661,27.874Z" transform="translate(5.022 0)" fill="#8321d6"/>
      <path id="Path_53" data-name="Path 53" d="M0,26.173,3.619,49.2l30.516-20.94-18.472-8.3Z" transform="translate(0 8.853)" fill="#8321d6" opacity="0.5"/>
      <path id="Path_54" data-name="Path 54" d="M67.551.088,46.231,8.513l1.278,5.32Z" transform="translate(20.505 0.039)" fill="#8321d6" opacity="0.5"/>
      <path id="Path_55" data-name="Path 55" d="M63.2,11.244l-1.278-5.32-6,2.385L13.192,25.247l-2.341.937,18.472,8.3,44.3,19.876Z" transform="translate(4.813 2.628)" fill="#8321d6" opacity="0.8"/>
    </g>
    <g id="Group_33" data-name="Group 33" transform="translate(498.429 544.457) rotate(-3)">
      <path id="Path_52-2" data-name="Path 52" d="M55.713,10.937,11.322,0l1.661,27.874Z" transform="translate(5.022 0)" fill="#8321d6"/>
      <path id="Path_53-2" data-name="Path 53" d="M0,26.173,3.619,49.2l30.516-20.94-18.472-8.3Z" transform="translate(0 8.853)" fill="#8321d6" opacity="0.5"/>
      <path id="Path_54-2" data-name="Path 54" d="M67.551.088,46.231,8.513l1.278,5.32Z" transform="translate(20.505 0.039)" fill="#8321d6" opacity="0.5"/>
      <path id="Path_55-2" data-name="Path 55" d="M63.2,11.244l-1.278-5.32-6,2.385L13.192,25.247l-2.341.937,18.472,8.3,44.3,19.876Z" transform="translate(4.813 2.628)" fill="#8321d6" opacity="0.8"/>
    </g>
    <g id="Group_37" data-name="Group 37" transform="translate(464.976 563.463) rotate(59)">
      <path id="Path_52-3" data-name="Path 52" d="M55.713,10.937,11.322,0l1.661,27.874Z" transform="translate(5.022 0)" fill="#8321d6"/>
      <path id="Path_53-3" data-name="Path 53" d="M0,26.173,3.619,49.2l30.516-20.94-18.472-8.3Z" transform="translate(0 8.853)" fill="#8321d6" opacity="0.5"/>
      <path id="Path_54-3" data-name="Path 54" d="M67.551.088,46.231,8.513l1.278,5.32Z" transform="translate(20.505 0.039)" fill="#8321d6" opacity="0.5"/>
      <path id="Path_55-3" data-name="Path 55" d="M63.2,11.244l-1.278-5.32-6,2.385L13.192,25.247l-2.341.937,18.472,8.3,44.3,19.876Z" transform="translate(4.813 2.628)" fill="#8321d6" opacity="0.8"/>
    </g>
    <g id="Group_41" data-name="Group 41" transform="translate(425.762 562.103) rotate(103)">
      <path id="Path_52-4" data-name="Path 52" d="M55.713,10.937,11.322,0l1.661,27.874Z" transform="translate(5.022 0)" fill="#8321d6"/>
      <path id="Path_53-4" data-name="Path 53" d="M0,26.173,3.619,49.2l30.516-20.94-18.472-8.3Z" transform="translate(0 8.853)" fill="#8321d6" opacity="0.5"/>
      <path id="Path_54-4" data-name="Path 54" d="M67.551.088,46.231,8.513l1.278,5.32Z" transform="translate(20.505 0.039)" fill="#8321d6" opacity="0.5"/>
      <path id="Path_55-4" data-name="Path 55" d="M63.2,11.244l-1.278-5.32-6,2.385L13.192,25.247l-2.341.937,18.472,8.3,44.3,19.876Z" transform="translate(4.813 2.628)" fill="#8321d6" opacity="0.8"/>
    </g>
    <g id="Group_45" data-name="Group 45" transform="translate(387.577 506.7) rotate(103)">
      <path id="Path_52-5" data-name="Path 52" d="M55.713,10.937,11.322,0l1.661,27.874Z" transform="translate(5.022 0)" fill="#8321d6"/>
      <path id="Path_53-5" data-name="Path 53" d="M0,26.173,3.619,49.2l30.516-20.94-18.472-8.3Z" transform="translate(0 8.853)" fill="#8321d6" opacity="0.5"/>
      <path id="Path_54-5" data-name="Path 54" d="M67.551.088,46.231,8.513l1.278,5.32Z" transform="translate(20.505 0.039)" fill="#8321d6" opacity="0.5"/>
      <path id="Path_55-5" data-name="Path 55" d="M63.2,11.244l-1.278-5.32-6,2.385L13.192,25.247l-2.341.937,18.472,8.3,44.3,19.876Z" transform="translate(4.813 2.628)" fill="#8321d6" opacity="0.8"/>
    </g>
    <g id="Group_30" data-name="Group 30" transform="translate(520.207 473.33) rotate(8)">
      <path id="Path_52-6" data-name="Path 52" d="M44.391,10.937,0,0,1.661,27.874Z" transform="translate(16.344 0)" fill="#3217fd"/>
      <path id="Path_53-6" data-name="Path 53" d="M0,6.214,3.619,29.239,34.135,8.3,15.663,0Z" transform="translate(0 28.812)" fill="#3217fd" opacity="0.5"/>
      <path id="Path_54-6" data-name="Path 54" d="M21.32,0,0,8.425l1.278,5.32Z" transform="translate(66.736 0.127)" fill="#3217fd" opacity="0.5"/>
      <path id="Path_55-6" data-name="Path 55" d="M52.35,5.32,51.072,0l-6,2.385L2.341,19.322,0,20.259l18.472,8.3,44.3,19.876Z" transform="translate(15.663 8.552)" fill="#3217fd" opacity="0.8"/>
    </g>
    <g id="Group_34" data-name="Group 34" transform="translate(528.36 542.889) rotate(53)">
      <path id="Path_52-7" data-name="Path 52" d="M44.391,10.937,0,0,1.661,27.874Z" transform="translate(16.344 0)" fill="#3217fd"/>
      <path id="Path_53-7" data-name="Path 53" d="M0,6.214,3.619,29.239,34.135,8.3,15.663,0Z" transform="translate(0 28.812)" fill="#3217fd" opacity="0.5"/>
      <path id="Path_54-7" data-name="Path 54" d="M21.32,0,0,8.425l1.278,5.32Z" transform="translate(66.736 0.127)" fill="#3217fd" opacity="0.5"/>
      <path id="Path_55-7" data-name="Path 55" d="M52.35,5.32,51.072,0l-6,2.385L2.341,19.322,0,20.259l18.472,8.3,44.3,19.876Z" transform="translate(15.663 8.552)" fill="#3217fd" opacity="0.8"/>
    </g>
    <g id="Group_38" data-name="Group 38" transform="translate(480.412 589.154) rotate(115)">
      <path id="Path_52-8" data-name="Path 52" d="M44.391,10.937,0,0,1.661,27.874Z" transform="translate(16.344 0)" fill="#3217fd"/>
      <path id="Path_53-8" data-name="Path 53" d="M0,6.214,3.619,29.239,34.135,8.3,15.663,0Z" transform="translate(0 28.812)" fill="#3217fd" opacity="0.5"/>
      <path id="Path_54-8" data-name="Path 54" d="M21.32,0,0,8.425l1.278,5.32Z" transform="translate(66.736 0.127)" fill="#3217fd" opacity="0.5"/>
      <path id="Path_55-8" data-name="Path 55" d="M52.35,5.32,51.072,0l-6,2.385L2.341,19.322,0,20.259l18.472,8.3,44.3,19.876Z" transform="translate(15.663 8.552)" fill="#3217fd" opacity="0.8"/>
    </g>
    <g id="Group_42" data-name="Group 42" transform="matrix(-0.934, 0.358, -0.358, -0.934, 419.019, 591.307)">
      <path id="Path_52-9" data-name="Path 52" d="M44.391,10.937,0,0,1.661,27.874Z" transform="translate(16.344 0)" fill="#3217fd"/>
      <path id="Path_53-9" data-name="Path 53" d="M0,6.214,3.619,29.239,34.135,8.3,15.663,0Z" transform="translate(0 28.812)" fill="#3217fd" opacity="0.5"/>
      <path id="Path_54-9" data-name="Path 54" d="M21.32,0,0,8.425l1.278,5.32Z" transform="translate(66.736 0.127)" fill="#3217fd" opacity="0.5"/>
      <path id="Path_55-9" data-name="Path 55" d="M52.35,5.32,51.072,0l-6,2.385L2.341,19.322,0,20.259l18.472,8.3,44.3,19.876Z" transform="translate(15.663 8.552)" fill="#3217fd" opacity="0.8"/>
    </g>
    <g id="Group_46" data-name="Group 46" transform="matrix(-0.934, 0.358, -0.358, -0.934, 419.019, 521.456)">
      <path id="Path_52-10" data-name="Path 52" d="M44.391,10.937,0,0,1.661,27.874Z" transform="translate(16.344 0)" fill="#3217fd"/>
      <path id="Path_53-10" data-name="Path 53" d="M0,6.214,3.619,29.239,34.135,8.3,15.663,0Z" transform="translate(0 28.812)" fill="#3217fd" opacity="0.5"/>
      <path id="Path_54-10" data-name="Path 54" d="M21.32,0,0,8.425l1.278,5.32Z" transform="translate(66.736 0.127)" fill="#3217fd" opacity="0.5"/>
      <path id="Path_55-10" data-name="Path 55" d="M52.35,5.32,51.072,0l-6,2.385L2.341,19.322,0,20.259l18.472,8.3,44.3,19.876Z" transform="translate(15.663 8.552)" fill="#3217fd" opacity="0.8"/>
    </g>
    <g id="Group_31" data-name="Group 31" transform="translate(509.418 500.487) rotate(2)">
      <path id="Path_52-11" data-name="Path 52" d="M44.391,10.937,0,0,1.661,27.874Z" transform="translate(16.344 0)" fill="#4c00f8"/>
      <path id="Path_53-11" data-name="Path 53" d="M0,6.214,3.619,29.239,34.135,8.3,15.663,0Z" transform="translate(0 28.812)" fill="#4c00f8" opacity="0.5"/>
      <path id="Path_54-11" data-name="Path 54" d="M21.32,0,0,8.425l1.278,5.32Z" transform="translate(66.736 0.127)" fill="#4c00f8" opacity="0.5"/>
      <path id="Path_55-11" data-name="Path 55" d="M52.35,5.32,51.072,0l-6,2.385L2.341,19.322,0,20.259l18.472,8.3,44.3,19.876Z" transform="translate(15.663 8.552)" fill="#4c00f8" opacity="0.8"/>
    </g>
    <g id="Group_35" data-name="Group 35" transform="translate(501.529 554.463) rotate(47)">
      <path id="Path_52-12" data-name="Path 52" d="M44.391,10.937,0,0,1.661,27.874Z" transform="translate(16.344 0)" fill="#4c00f8"/>
      <path id="Path_53-12" data-name="Path 53" d="M0,6.214,3.619,29.239,34.135,8.3,15.663,0Z" transform="translate(0 28.812)" fill="#4c00f8" opacity="0.5"/>
      <path id="Path_54-12" data-name="Path 54" d="M21.32,0,0,8.425l1.278,5.32Z" transform="translate(66.736 0.127)" fill="#4c00f8" opacity="0.5"/>
      <path id="Path_55-12" data-name="Path 55" d="M52.35,5.32,51.072,0l-6,2.385L2.341,19.322,0,20.259l18.472,8.3,44.3,19.876Z" transform="translate(15.663 8.552)" fill="#4c00f8" opacity="0.8"/>
    </g>
    <g id="Group_39" data-name="Group 39" transform="translate(457.597 570.897) rotate(109)">
      <path id="Path_52-13" data-name="Path 52" d="M44.391,10.937,0,0,1.661,27.874Z" transform="translate(16.344 0)" fill="#4c00f8"/>
      <path id="Path_53-13" data-name="Path 53" d="M0,6.214,3.619,29.239,34.135,8.3,15.663,0Z" transform="translate(0 28.812)" fill="#4c00f8" opacity="0.5"/>
      <path id="Path_54-13" data-name="Path 54" d="M21.32,0,0,8.425l1.278,5.32Z" transform="translate(66.736 0.127)" fill="#4c00f8" opacity="0.5"/>
      <path id="Path_55-13" data-name="Path 55" d="M52.35,5.32,51.072,0l-6,2.385L2.341,19.322,0,20.259l18.472,8.3,44.3,19.876Z" transform="translate(15.663 8.552)" fill="#4c00f8" opacity="0.8"/>
    </g>
    <g id="Group_43" data-name="Group 43" transform="translate(415.29 562.324) rotate(153)">
      <path id="Path_52-14" data-name="Path 52" d="M44.391,10.937,0,0,1.661,27.874Z" transform="translate(16.344 0)" fill="#4c00f8"/>
      <path id="Path_53-14" data-name="Path 53" d="M0,6.214,3.619,29.239,34.135,8.3,15.663,0Z" transform="translate(0 28.812)" fill="#4c00f8" opacity="0.5"/>
      <path id="Path_54-14" data-name="Path 54" d="M21.32,0,0,8.425l1.278,5.32Z" transform="translate(66.736 0.127)" fill="#4c00f8" opacity="0.5"/>
      <path id="Path_55-14" data-name="Path 55" d="M52.35,5.32,51.072,0l-6,2.385L2.341,19.322,0,20.259l18.472,8.3,44.3,19.876Z" transform="translate(15.663 8.552)" fill="#4c00f8" opacity="0.8"/>
    </g>
    <g id="Group_47" data-name="Group 47" transform="translate(397.564 494.47) rotate(153)">
      <path id="Path_52-15" data-name="Path 52" d="M44.391,10.937,0,0,1.661,27.874Z" transform="translate(16.344 0)" fill="#4c00f8"/>
      <path id="Path_53-15" data-name="Path 53" d="M0,6.214,3.619,29.239,34.135,8.3,15.663,0Z" transform="translate(0 28.812)" fill="#4c00f8" opacity="0.5"/>
      <path id="Path_54-15" data-name="Path 54" d="M21.32,0,0,8.425l1.278,5.32Z" transform="translate(66.736 0.127)" fill="#4c00f8" opacity="0.5"/>
      <path id="Path_55-15" data-name="Path 55" d="M52.35,5.32,51.072,0l-6,2.385L2.341,19.322,0,20.259l18.472,8.3,44.3,19.876Z" transform="translate(15.663 8.552)" fill="#4c00f8" opacity="0.8"/>
    </g>
    <g id="Group_32" data-name="Group 32" transform="translate(548.824 477.352) rotate(58)">
      <path id="Path_52-16" data-name="Path 52" d="M44.391,10.937,0,0,1.661,27.874Z" transform="translate(16.344 0)" fill="#f733b3"/>
      <path id="Path_53-16" data-name="Path 53" d="M0,6.214,3.619,29.239,34.135,8.3,15.663,0Z" transform="translate(0 28.812)" fill="#f733b3" opacity="0.5"/>
      <path id="Path_54-16" data-name="Path 54" d="M21.32,0,0,8.425l1.278,5.32Z" transform="translate(66.736 0.127)" fill="#f733b3" opacity="0.5"/>
      <path id="Path_55-16" data-name="Path 55" d="M52.35,5.32,51.072,0l-6,2.385L2.341,19.322,0,20.259l18.472,8.3,44.3,19.876Z" transform="translate(15.663 8.552)" fill="#f733b3" opacity="0.8"/>
    </g>
    <g id="Group_36" data-name="Group 36" transform="translate(545.751 565.968) rotate(103)">
      <path id="Path_52-17" data-name="Path 52" d="M44.391,10.937,0,0,1.661,27.874Z" transform="translate(16.344 0)" fill="#f733b3"/>
      <path id="Path_53-17" data-name="Path 53" d="M0,6.214,3.619,29.239,34.135,8.3,15.663,0Z" transform="translate(0 28.812)" fill="#f733b3" opacity="0.5"/>
      <path id="Path_54-17" data-name="Path 54" d="M21.32,0,0,8.425l1.278,5.32Z" transform="translate(66.736 0.127)" fill="#f733b3" opacity="0.5"/>
      <path id="Path_55-17" data-name="Path 55" d="M52.35,5.32,51.072,0l-6,2.385L2.341,19.322,0,20.259l18.472,8.3,44.3,19.876Z" transform="translate(15.663 8.552)" fill="#f733b3" opacity="0.8"/>
    </g>
    <g id="Group_40" data-name="Group 40" transform="translate(468.2 615.344) rotate(165)">
      <path id="Path_52-18" data-name="Path 52" d="M44.391,10.937,0,0,1.661,27.874Z" transform="translate(16.344 0)" fill="#f733b3"/>
      <path id="Path_53-18" data-name="Path 53" d="M0,6.214,3.619,29.239,34.135,8.3,15.663,0Z" transform="translate(0 28.812)" fill="#f733b3" opacity="0.5"/>
      <path id="Path_54-18" data-name="Path 54" d="M21.32,0,0,8.425l1.278,5.32Z" transform="translate(66.736 0.127)" fill="#f733b3" opacity="0.5"/>
      <path id="Path_55-18" data-name="Path 55" d="M52.35,5.32,51.072,0l-6,2.385L2.341,19.322,0,20.259l18.472,8.3,44.3,19.876Z" transform="translate(15.663 8.552)" fill="#f733b3" opacity="0.8"/>
    </g>
    <g id="Group_44" data-name="Group 44" transform="translate(375.15 583.843) rotate(-151)">
      <path id="Path_52-19" data-name="Path 52" d="M44.391,10.937,0,0,1.661,27.874Z" transform="translate(16.344 0)" fill="#f733b3"/>
      <path id="Path_53-19" data-name="Path 53" d="M0,6.214,3.619,29.239,34.135,8.3,15.663,0Z" transform="translate(0 28.812)" fill="#f733b3" opacity="0.5"/>
      <path id="Path_54-19" data-name="Path 54" d="M21.32,0,0,8.425l1.278,5.32Z" transform="translate(66.736 0.127)" fill="#f733b3" opacity="0.5"/>
      <path id="Path_55-19" data-name="Path 55" d="M52.35,5.32,51.072,0l-6,2.385L2.341,19.322,0,20.259l18.472,8.3,44.3,19.876Z" transform="translate(15.663 8.552)" fill="#f733b3" opacity="0.8"/>
    </g>
    <g id="Group_48" data-name="Group 48" transform="translate(373.827 544.462) rotate(-151)">
      <path id="Path_52-20" data-name="Path 52" d="M44.391,10.937,0,0,1.661,27.874Z" transform="translate(16.344 0)" fill="#f733b3"/>
      <path id="Path_53-20" data-name="Path 53" d="M0,6.214,3.619,29.239,34.135,8.3,15.663,0Z" transform="translate(0 28.812)" fill="#f733b3" opacity="0.5"/>
      <path id="Path_54-20" data-name="Path 54" d="M21.32,0,0,8.425l1.278,5.32Z" transform="translate(66.736 0.127)" fill="#f733b3" opacity="0.5"/>
      <path id="Path_55-20" data-name="Path 55" d="M52.35,5.32,51.072,0l-6,2.385L2.341,19.322,0,20.259l18.472,8.3,44.3,19.876Z" transform="translate(15.663 8.552)" fill="#f733b3" opacity="0.8"/>
    </g>
  </g>
</svg>
