<svg xmlns="http://www.w3.org/2000/svg" xmlns:xlink="http://www.w3.org/1999/xlink" width="840" height="902" viewBox="0 0 840 902">
  <defs>
    <clipPath id="clip-Pirate_1">
      <rect width="840" height="902"/>
    </clipPath>
  </defs>
  <g id="Pirate_1" data-name="Pirate – 1" clip-path="url(#clip-Pirate_1)">
    <path id="Path_70" data-name="Path 70" d="M41,17.945c22.644,0,41,.411,41,23.055A41,41,0,0,1,0,41C0,18.356,18.356,17.945,41,17.945Z" transform="matrix(0.966, 0.259, -0.259, 0.966, 499.457, 337.622)"/>
    <path id="Path_72" data-name="Path 72" d="M5170.92,2936.372s-35.91-6.089-70.773-9.452-68.684-4-68.684-4" transform="translate(-4679.253 -2556.18)" fill="none" stroke="#000" stroke-width="5"/>
    <path id="Path_73" data-name="Path 73" d="M5065.415,2929.646a148.442,148.442,0,0,0-17.23-4.726,121.948,121.948,0,0,0-16.722-2" transform="translate(-4475.148 -2521.481)" fill="none" stroke="#000" stroke-width="5"/>
    <g id="Group_49" data-name="Group 49">
      <text id="_" data-name="🏴" transform="matrix(-0.914, -0.407, -0.407, 0.914, 340.095, 239.041)" fill="#707070" font-size="250" font-family="AppleColorEmoji, Apple Color Emoji"><tspan x="0" y="250">🏴</tspan></text>
      <text id="_2" data-name="☠" transform="matrix(0.819, 0.574, -0.574, 0.819, 174.254, 224.318)" fill="#fff" font-size="150" font-family="Menlo-Regular, Menlo"><tspan x="0" y="139">☠</tspan></text>
    </g>
  </g>
</svg>
