<svg xmlns="http://www.w3.org/2000/svg" xmlns:xlink="http://www.w3.org/1999/xlink" width="840" height="902" viewBox="0 0 840 902">
  <defs>
    <clipPath id="clip-Rockstar_1">
      <rect width="840" height="902"/>
    </clipPath>
  </defs>
  <g id="Rockstar_1" data-name="Rockstar – 1" clip-path="url(#clip-Rockstar_1)">
    <text id="_" data-name="🎸" transform="translate(-87.317 543.061) rotate(-42)" fill="#707070" font-size="400" font-family="AppleColorEmoji, Apple Color Emoji"><tspan x="0" y="400">🎸</tspan></text>
    <path id="Path_70" data-name="Path 70" d="M41,17.945c22.644,0,41,.411,41,23.055A41,41,0,0,1,0,41C0,18.356,18.356,17.945,41,17.945Z" transform="matrix(0.966, 0.259, -0.259, 0.966, 496.431, 332.85)"/>
    <path id="Path_71" data-name="Path 71" d="M41,17.945c22.644,0,41,.411,41,23.055A41,41,0,0,1,0,41C0,18.356,18.356,17.945,41,17.945Z" transform="translate(405.401 287.566) rotate(25)"/>
    <path id="Path_72" data-name="Path 72" d="M5060.31,2936.372a82.709,82.709,0,0,0-14.639-9.452,47.922,47.922,0,0,0-14.207-4" transform="translate(-4571.668 -2560.952)" fill="none" stroke="#000" stroke-width="5"/>
  </g>
</svg>
